#Comment line ignore any data following # character 
#Hierarchical Translation and Rotation (.htr) file 
[Header]	
#Header keywords are followed by a single value 
FileType HTR		#Single word string
DataType HTRS		#Translation followed by rotation and scale data
FileVersion 1		#integer
NumSegments 84		#integer
NumFrames 2		#integer
DataFrameRate 30		#integer, data frame rate in this file
EulerRotationOrder ZYX
CalibrationUnits mm
RotationUnits Degrees
GlobalAxisofGravity Y
BoneLengthAxis Y
ScaleFactor 1.00
[SegmentNames&Hierarchy]
#CHILD	PARENT
MASTER GLOBAL
root MASTER
chest root
L_mid_tent01 root
R_mid_tent01 root
spine01 root
Bip01_Neck chest
L_humerus chest
R_humerus chest
weapon_bone chest
Bip01_Head Bip01_Neck
eye_left_bone Bip01_Head
eye_right_bone Bip01_Head
L_forearm L_humerus
L_front_hand L_forearm
L_weapon_bone L_forearm
L_front_hand01_01 L_front_hand
L_front_hand02_01 L_front_hand
L_front_hand03_01 L_front_hand
L_front_hand01_02 L_front_hand01_01
L_front_hand02_02 L_front_hand02_01
L_front_hand03_02 L_front_hand03_01
R_forearm R_humerus
R_front_hand R_forearm
R_weapon_bone R_forearm
R_front_hand01_01 R_front_hand
R_front_hand02_01 R_front_hand
R_front_hand03_01 R_front_hand
R_front_hand01_02 R_front_hand01_01
R_front_hand02_02 R_front_hand02_01
R_front_hand03_02 R_front_hand03_01
null_rope01_connect L_mid_tent01
Rope1_Seg01 null_rope01_connect
Rope1_Seg02 Rope1_Seg01
Rope1_Seg03 Rope1_Seg02
Rope1_Seg04 Rope1_Seg03
Rope1_Seg05 Rope1_Seg04
Rope1_Seg06 Rope1_Seg05
Rope1_Seg07 Rope1_Seg06
Rope1_Seg09 Rope1_Seg07
L_mid_hand01 Rope1_Seg09
L_mid_hand02 Rope1_Seg09
L_mid_hand03 Rope1_Seg09
null_rope02_connect R_mid_tent01
Rope2_Seg01 null_rope02_connect
Rope2_Seg02 Rope2_Seg01
Rope2_Seg03 Rope2_Seg02
Rope2_Seg04 Rope2_Seg03
Rope2_Seg05 Rope2_Seg04
Rope2_Seg06 Rope2_Seg05
Rope2_Seg07 Rope2_Seg06
Rope2_Seg09 Rope2_Seg07
R_mid_hand01 Rope2_Seg09
R_mid_hand02 Rope2_Seg09
R_mid_hand03 Rope2_Seg09
spine02 spine01
spine03 spine02
pelvis spine03
null_rope03_connect pelvis
null_rope04_connect pelvis
Rope3_Seg01 null_rope03_connect
Rope3_Seg02 Rope3_Seg01
Rope3_Seg03 Rope3_Seg02
Rope3_Seg04 Rope3_Seg03
Rope3_Seg05 Rope3_Seg04
Rope3_Seg06 Rope3_Seg05
Rope3_Seg07 Rope3_Seg06
Rope3_Seg08 Rope3_Seg07
Rope3_Seg09 Rope3_Seg08
R_rear_hand01 Rope3_Seg09
R_rear_hand02 Rope3_Seg09
R_rear_hand03 Rope3_Seg09
Rope4_Seg01 null_rope04_connect
Rope4_Seg02 Rope4_Seg01
Rope4_Seg03 Rope4_Seg02
Rope4_Seg04 Rope4_Seg03
Rope4_Seg05 Rope4_Seg04
Rope4_Seg06 Rope4_Seg05
Rope4_Seg07 Rope4_Seg06
Rope4_Seg08 Rope4_Seg07
Rope4_Seg09 Rope4_Seg08
L_rear_hand01 Rope4_Seg09
L_rear_hand02 Rope4_Seg09
L_rear_hand03 Rope4_Seg09
[BasePosition]
#SegmentName Tx, Ty, Tz, Rx, Ry, Rz, BoneLength
MASTER 0.000000 0.000000 0.000000 -90.000000 0.000000 0.000000 10.000000 
root 0.000000 0.000000 0.000000 0.000000 0.000000 0.000000 10.000000 
chest 0.000000 0.000000 0.000000 0.000000 0.000000 0.000000 10.000000 
L_mid_tent01 0.000000 0.000000 0.000000 0.000000 0.000000 0.000000 10.000000 
R_mid_tent01 0.000000 0.000000 0.000000 0.000000 0.000000 0.000000 10.000000 
spine01 0.000000 0.000000 0.000000 0.000000 0.000000 0.000000 10.000000 
Bip01_Neck 0.000000 0.000000 0.000000 0.000000 0.000000 0.000000 10.000000 
L_humerus 0.000000 0.000000 0.000000 0.000000 0.000000 0.000000 10.000000 
R_humerus 0.000000 0.000000 0.000000 0.000000 0.000000 0.000000 10.000000 
weapon_bone 0.000000 0.000000 0.000000 0.000000 0.000000 0.000000 10.000000 
Bip01_Head 0.000000 0.000000 0.000000 0.000000 0.000000 0.000000 10.000000 
eye_left_bone 0.000000 0.000000 0.000000 0.000000 0.000000 0.000000 10.000000 
eye_right_bone 0.000000 0.000000 0.000000 0.000000 0.000000 0.000000 10.000000 
L_forearm 0.000000 0.000000 0.000000 0.000000 0.000000 0.000000 10.000000 
L_front_hand 0.000000 0.000000 0.000000 0.000000 0.000000 0.000000 10.000000 
L_weapon_bone 0.000000 0.000000 0.000000 0.000000 0.000000 0.000000 10.000000 
L_front_hand01_01 0.000000 0.000000 0.000000 0.000000 0.000000 0.000000 10.000000 
L_front_hand02_01 0.000000 0.000000 0.000000 0.000000 0.000000 0.000000 10.000000 
L_front_hand03_01 0.000000 0.000000 0.000000 0.000000 0.000000 0.000000 10.000000 
L_front_hand01_02 0.000000 0.000000 0.000000 0.000000 0.000000 0.000000 10.000000 
L_front_hand02_02 0.000000 0.000000 0.000000 0.000000 0.000000 0.000000 10.000000 
L_front_hand03_02 0.000000 0.000000 0.000000 0.000000 0.000000 0.000000 10.000000 
R_forearm 0.000000 0.000000 0.000000 0.000000 0.000000 0.000000 10.000000 
R_front_hand 0.000000 0.000000 0.000000 0.000000 0.000000 0.000000 10.000000 
R_weapon_bone 0.000000 0.000000 0.000000 0.000000 0.000000 0.000000 10.000000 
R_front_hand01_01 0.000000 0.000000 0.000000 0.000000 0.000000 0.000000 10.000000 
R_front_hand02_01 0.000000 0.000000 0.000000 0.000000 0.000000 0.000000 10.000000 
R_front_hand03_01 0.000000 0.000000 0.000000 0.000000 0.000000 0.000000 10.000000 
R_front_hand01_02 0.000000 0.000000 0.000000 0.000000 0.000000 0.000000 10.000000 
R_front_hand02_02 0.000000 0.000000 0.000000 0.000000 0.000000 0.000000 10.000000 
R_front_hand03_02 0.000000 0.000000 0.000000 0.000000 0.000000 0.000000 10.000000 
null_rope01_connect 0.000000 0.000000 0.000000 0.000000 0.000000 0.000000 10.000000 
Rope1_Seg01 0.000000 0.000000 0.000000 0.000000 0.000000 0.000000 10.000000 
Rope1_Seg02 0.000000 0.000000 0.000000 0.000000 0.000000 0.000000 10.000000 
Rope1_Seg03 0.000000 0.000000 0.000000 0.000000 0.000000 0.000000 10.000000 
Rope1_Seg04 0.000000 0.000000 0.000000 0.000000 0.000000 0.000000 10.000000 
Rope1_Seg05 0.000000 0.000000 0.000000 0.000000 0.000000 0.000000 10.000000 
Rope1_Seg06 0.000000 0.000000 0.000000 0.000000 0.000000 0.000000 10.000000 
Rope1_Seg07 0.000000 0.000000 0.000000 0.000000 0.000000 0.000000 10.000000 
Rope1_Seg09 0.000000 0.000000 0.000000 0.000000 0.000000 0.000000 10.000000 
L_mid_hand01 0.000000 0.000000 0.000000 0.000000 0.000000 0.000000 10.000000 
L_mid_hand02 0.000000 0.000000 0.000000 0.000000 0.000000 0.000000 10.000000 
L_mid_hand03 0.000000 0.000000 0.000000 0.000000 0.000000 0.000000 10.000000 
null_rope02_connect 0.000000 0.000000 0.000000 0.000000 0.000000 0.000000 10.000000 
Rope2_Seg01 0.000000 0.000000 0.000000 0.000000 0.000000 0.000000 10.000000 
Rope2_Seg02 0.000000 0.000000 0.000000 0.000000 0.000000 0.000000 10.000000 
Rope2_Seg03 0.000000 0.000000 0.000000 0.000000 0.000000 0.000000 10.000000 
Rope2_Seg04 0.000000 0.000000 0.000000 0.000000 0.000000 0.000000 10.000000 
Rope2_Seg05 0.000000 0.000000 0.000000 0.000000 0.000000 0.000000 10.000000 
Rope2_Seg06 0.000000 0.000000 0.000000 0.000000 0.000000 0.000000 10.000000 
Rope2_Seg07 0.000000 0.000000 0.000000 0.000000 0.000000 0.000000 10.000000 
Rope2_Seg09 0.000000 0.000000 0.000000 0.000000 0.000000 0.000000 10.000000 
R_mid_hand01 0.000000 0.000000 0.000000 0.000000 0.000000 0.000000 10.000000 
R_mid_hand02 0.000000 0.000000 0.000000 0.000000 0.000000 0.000000 10.000000 
R_mid_hand03 0.000000 0.000000 0.000000 0.000000 0.000000 0.000000 10.000000 
spine02 0.000000 0.000000 0.000000 0.000000 0.000000 0.000000 10.000000 
spine03 0.000000 0.000000 0.000000 0.000000 0.000000 0.000000 10.000000 
pelvis 0.000000 0.000000 0.000000 0.000000 0.000000 0.000000 10.000000 
null_rope03_connect 0.000000 0.000000 0.000000 0.000000 0.000000 0.000000 10.000000 
null_rope04_connect 0.000000 0.000000 0.000000 0.000000 0.000000 0.000000 10.000000 
Rope3_Seg01 0.000000 0.000000 0.000000 0.000000 0.000000 0.000000 10.000000 
Rope3_Seg02 0.000000 0.000000 0.000000 0.000000 0.000000 0.000000 10.000000 
Rope3_Seg03 0.000000 0.000000 0.000000 0.000000 0.000000 0.000000 10.000000 
Rope3_Seg04 0.000000 0.000000 0.000000 0.000000 0.000000 0.000000 10.000000 
Rope3_Seg05 0.000000 0.000000 0.000000 0.000000 0.000000 0.000000 10.000000 
Rope3_Seg06 0.000000 0.000000 0.000000 0.000000 0.000000 0.000000 10.000000 
Rope3_Seg07 0.000000 0.000000 0.000000 0.000000 0.000000 0.000000 10.000000 
Rope3_Seg08 0.000000 0.000000 0.000000 0.000000 0.000000 0.000000 10.000000 
Rope3_Seg09 0.000000 0.000000 0.000000 0.000000 0.000000 0.000000 10.000000 
R_rear_hand01 0.000000 0.000000 0.000000 0.000000 0.000000 0.000000 10.000000 
R_rear_hand02 0.000000 0.000000 0.000000 0.000000 0.000000 0.000000 10.000000 
R_rear_hand03 0.000000 0.000000 0.000000 0.000000 0.000000 0.000000 10.000000 
Rope4_Seg01 0.000000 0.000000 0.000000 0.000000 0.000000 0.000000 10.000000 
Rope4_Seg02 0.000000 0.000000 0.000000 0.000000 0.000000 0.000000 10.000000 
Rope4_Seg03 0.000000 0.000000 0.000000 0.000000 0.000000 0.000000 10.000000 
Rope4_Seg04 0.000000 0.000000 0.000000 0.000000 0.000000 0.000000 10.000000 
Rope4_Seg05 0.000000 0.000000 0.000000 0.000000 0.000000 0.000000 10.000000 
Rope4_Seg06 0.000000 0.000000 0.000000 0.000000 0.000000 0.000000 10.000000 
Rope4_Seg07 0.000000 0.000000 0.000000 0.000000 0.000000 0.000000 10.000000 
Rope4_Seg08 0.000000 0.000000 0.000000 0.000000 0.000000 0.000000 10.000000 
Rope4_Seg09 0.000000 0.000000 0.000000 0.000000 0.000000 0.000000 10.000000 
L_rear_hand01 0.000000 0.000000 0.000000 0.000000 0.000000 0.000000 10.000000 
L_rear_hand02 0.000000 0.000000 0.000000 0.000000 0.000000 0.000000 10.000000 
L_rear_hand03 0.000000 0.000000 0.000000 0.000000 0.000000 0.000000 10.000000 
#Beginning of Data. Separated by tabs
#Fr	Tx	Ty	Tz	Rx	Ry	Rz	SF
[MASTER]
1 0.000000 0.000000 0.000000 0.001660 0.001660 0.001660 0.000000
2 0.000000 0.000000 0.000000 0.001660 0.001660 0.001660 0.000000
[root]
1 -92.154549 -62.822124 1480.482544 -85.985977 -4.574840 -89.819939 1484.677612
2 -90.910042 -62.822124 1483.583740 -86.105949 -4.702275 -89.818451 1487.693481
[chest]
1 -84.512650 -34.090519 0.000000 -0.307809 -0.743092 156.385437 91.129311
2 -84.512650 -34.090519 0.000000 -0.307809 -0.743092 156.385422 91.129311
[L_mid_tent01]
1 23.228750 24.509907 -223.761200 -13.173216 15.351433 -6.951806 226.294907
2 23.228750 24.509907 -223.761200 -11.660402 14.740182 -5.881530 226.294907
[R_mid_tent01]
1 23.228794 24.509907 226.238495 -159.906189 -4.246606 -21.363230 228.744751
2 23.228794 24.509907 226.238495 -159.739426 -8.342663 -22.881332 228.744751
[spine01]
1 -0.361383 -0.195265 0.000000 0.001815 0.001488 11.320962 0.410763
2 -0.361383 -0.195265 0.000000 0.001815 0.001488 11.320962 0.410763
[Bip01_Neck]
1 165.484543 71.581718 0.000119 175.896118 1.177290 24.871183 180.302734
2 165.484543 71.581718 0.000119 175.896118 1.177290 24.871185 180.302734
[L_humerus]
1 -13.983130 -135.272980 -120.471481 149.628754 9.923236 -156.213867 181.680161
2 -13.983130 -135.272980 -120.471481 149.628754 9.923237 -156.213867 181.680161
[R_humerus]
1 -13.983309 -135.273102 125.287651 -156.699188 -11.743878 -154.898071 184.909012
2 -13.983309 -135.273102 125.287651 -156.699188 -11.743876 -154.898056 184.909012
[weapon_bone]
1 235.964890 -300.705902 0.000000 0.000000 -89.951546 -128.212341 382.234833
2 235.964890 -300.705902 0.000000 0.000000 -89.951546 -128.212341 382.234833
[Bip01_Head]
1 179.663712 77.989044 -1.800928 4.529317 10.605762 -40.326576 195.868805
2 179.663712 77.989044 -1.800928 4.312456 9.755289 -40.427326 195.868805
[eye_left_bone]
1 -24.626970 125.451866 -64.772606 0.000000 -90.000000 -99.840431 143.318359
2 -24.626970 125.451866 -64.772606 0.000000 -90.000000 -99.840431 143.318359
[eye_right_bone]
1 -24.626970 125.451866 64.327362 0.000000 -89.965736 80.156380 143.117676
2 -24.626970 125.451866 64.327362 0.000000 -89.972023 80.156380 143.117676
[L_forearm]
1 322.776093 0.000000 -0.000119 0.000842 -0.002191 -132.067245 322.776093
2 322.776093 0.000000 -0.000119 0.000842 -0.002191 -132.067245 322.776093
[L_front_hand]
1 241.149185 -0.042021 -3.300071 -178.302231 -1.505829 -39.930786 241.171753
2 241.149185 -0.042021 -3.300071 -147.840485 -1.501243 -39.932976 241.171753
[L_weapon_bone]
1 156.183838 0.000000 0.000000 0.000014 0.000007 0.000001 156.183838
2 156.183838 0.000000 0.000000 0.000014 0.000007 0.000001 156.183838
[L_front_hand01_01]
1 86.095154 20.947098 -0.655860 0.139491 -0.584553 24.181786 88.609184
2 86.095154 20.947098 -0.655860 0.002160 -0.599537 37.456566 88.609184
[L_front_hand02_01]
1 86.935165 -11.437475 24.513514 119.190460 -21.905655 -12.119137 91.046425
2 86.935165 -11.437475 24.513514 122.778473 -33.303108 -19.819523 91.046425
[L_front_hand03_01]
1 86.637497 -14.123976 -20.424902 -120.437630 20.554031 -14.327168 90.126129
2 86.637497 -14.123976 -20.424902 -123.933609 31.809505 -22.198084 90.126129
[L_front_hand01_02]
1 71.020905 -0.000179 0.000030 0.000334 -0.002323 -106.379684 71.020905
2 71.020905 -0.000179 0.000030 0.000260 -0.002333 -102.740669 71.020905
[L_front_hand02_02]
1 71.020927 -0.000119 0.000060 0.000334 -0.002323 -106.379684 71.020927
2 71.020927 -0.000119 0.000060 0.000260 -0.002333 -102.740669 71.020927
[L_front_hand03_02]
1 71.020905 -0.000060 0.000060 0.000334 -0.002323 -106.379684 71.020905
2 71.020905 -0.000060 0.000060 0.000260 -0.002333 -102.740669 71.020905
[R_forearm]
1 322.776428 -0.000060 0.000030 0.244684 0.084396 -126.001297 322.776428
2 322.776428 -0.000060 0.000030 0.244684 0.084396 -126.001312 322.776428
[R_front_hand]
1 238.847015 -0.006795 2.210259 -1.036721 0.234958 -48.451775 238.857239
2 238.847015 -0.006795 2.210259 -36.518978 0.237363 -48.449821 238.857239
[R_weapon_bone]
1 155.664093 0.002503 -0.000030 0.003487 0.001180 -90.988930 155.664078
2 155.664093 0.002503 -0.000030 0.003487 0.001180 -90.988930 155.664078
[R_front_hand01_01]
1 87.624611 14.231146 22.918642 -119.218056 -22.033409 12.303375 91.683487
2 87.624611 14.231146 22.918642 -119.819061 -24.501169 13.827970 91.683487
[R_front_hand02_01]
1 89.356956 14.367283 -19.491137 120.545532 20.947184 14.823009 92.579636
2 89.356956 14.367283 -19.491137 121.136086 23.380270 16.391066 92.579636
[R_front_hand03_01]
1 87.286232 -22.307278 -0.143439 -0.231628 -0.392922 -24.567768 90.091743
2 87.286232 -22.307278 -0.143439 -0.211049 -0.400998 -27.405201 90.091743
[R_front_hand01_02]
1 71.020905 0.000060 0.000119 0.002323 -0.000334 106.381714 71.020905
2 71.020905 0.000060 0.000119 0.002327 -0.000305 104.941811 71.020905
[R_front_hand02_02]
1 71.020844 -0.000030 -0.000119 0.002323 -0.000334 106.381714 71.020836
2 71.020844 -0.000030 -0.000119 0.002327 -0.000305 104.941811 71.020836
[R_front_hand03_02]
1 71.020905 0.000000 0.000030 0.002323 -0.000334 106.381714 71.020905
2 71.020905 0.000000 0.000030 0.002327 -0.000305 104.941811 71.020905
[null_rope01_connect]
1 328.732483 0.000000 -0.000238 -110.050941 -72.027313 -150.779327 328.732483
2 328.732483 0.000000 -0.000238 -107.875992 -73.283432 -153.577286 328.732483
[Rope1_Seg01]
1 0.000000 0.000000 0.000000 79.482719 -21.114084 -146.949921 0.000000
2 0.000000 0.000000 0.000000 74.366982 -20.214212 -141.590240 0.000000
[Rope1_Seg02]
1 139.999863 -0.000179 0.000000 -12.666700 15.966165 4.199634 139.999863
2 139.999863 -0.000179 0.000000 -12.002792 13.667826 3.447438 139.999863
[Rope1_Seg03]
1 139.999924 0.000060 -0.000060 -18.563345 18.128271 8.896574 139.999924
2 139.999924 0.000060 -0.000060 -9.048119 9.292933 1.235912 139.999924
[Rope1_Seg04]
1 139.999924 -0.000060 -0.000119 -17.289249 14.168372 16.006878 139.999924
2 139.999924 -0.000060 -0.000119 -16.170263 10.999287 9.501221 139.999924
[Rope1_Seg05]
1 139.999832 0.000119 -0.000060 -5.534375 1.396725 10.521360 139.999832
2 139.999832 0.000119 -0.000060 -13.213643 4.633178 20.753828 139.999832
[Rope1_Seg06]
1 139.999954 0.000119 -0.000060 -1.484662 -0.053053 3.796702 139.999954
2 139.999954 0.000119 -0.000060 -3.114033 -0.225155 8.247558 139.999954
[Rope1_Seg07]
1 139.999985 0.000060 0.000000 -0.865909 0.156960 2.221289 139.999985
2 139.999985 0.000060 0.000000 -1.159617 -0.104512 3.688082 139.999985
[Rope1_Seg09]
1 121.602913 0.000119 -0.000089 -89.793175 -1.359789 0.847147 121.602913
2 121.602913 0.000119 -0.000089 -89.793175 -1.359789 0.847147 121.602913
[L_mid_hand01]
1 103.859421 1.038730 8.195221 106.855484 -31.239275 -9.461397 104.187431
2 103.859421 1.038730 8.195221 106.855484 -31.239275 -9.461397 104.187431
[L_mid_hand02]
1 105.572853 -4.139662 -10.864139 -142.331345 25.752670 -28.774628 106.211075
2 105.572853 -4.139662 -10.864139 -142.331345 25.752670 -28.774628 106.211075
[L_mid_hand03]
1 104.641464 17.579376 -3.913581 -16.122810 9.734291 34.223598 106.179977
2 104.641464 17.579376 -3.913581 -16.122810 9.734291 34.223598 106.179977
[null_rope02_connect]
1 328.732849 0.000179 -0.000119 -147.228867 65.916466 -82.781181 328.732849
2 328.732849 0.000179 -0.000119 -136.650101 65.103233 -73.243828 328.732849
[Rope2_Seg01]
1 0.000153 0.000076 -0.000153 91.069305 -37.378742 -118.803040 0.000229
2 0.000152 0.000077 -0.000150 87.394554 -40.013855 -112.990250 0.000227
[Rope2_Seg02]
1 139.999741 -0.000060 -0.000119 -0.737357 13.379760 -9.177309 139.999756
2 139.999741 -0.000060 -0.000119 0.126217 8.216704 -10.715127 139.999756
[Rope2_Seg03]
1 140.000107 0.000030 0.000000 1.226680 13.448833 -12.634519 140.000107
2 140.000107 0.000030 0.000000 2.905682 6.764009 -14.066812 140.000107
[Rope2_Seg04]
1 139.999802 0.000000 -0.000060 5.948233 10.414738 -13.298914 139.999802
2 139.999802 0.000000 -0.000060 7.933886 2.306026 -16.292837 139.999802
[Rope2_Seg05]
1 139.999985 -0.000060 0.000119 -12.586391 12.718616 4.653551 139.999985
2 139.999985 -0.000060 0.000119 -8.213140 17.977831 1.074819 139.999985
[Rope2_Seg06]
1 139.999893 -0.000030 -0.000119 -19.240639 7.773529 11.078846 139.999893
2 139.999893 -0.000030 -0.000119 -24.161867 18.043552 10.327775 139.999893
[Rope2_Seg07]
1 139.999893 0.000060 -0.000060 -7.922474 2.621923 4.730808 139.999893
2 139.999893 0.000060 -0.000060 -11.905635 5.318244 5.472655 139.999893
[Rope2_Seg09]
1 121.338966 0.000089 -0.000060 33.793236 -1.359788 -0.847141 121.338966
2 121.338966 0.000089 -0.000060 33.793236 -1.359788 -0.847141 121.338966
[R_mid_hand01]
1 104.680779 11.144459 -10.335981 -41.523792 25.424656 28.595957 105.778534
2 104.680779 11.144459 -10.335981 -41.523792 25.424656 28.595957 105.778534
[R_mid_hand02]
1 104.070427 2.443552 8.231699 72.847389 -32.746803 10.013901 104.424065
2 104.070427 2.443552 8.231699 72.847389 -32.746803 10.013901 104.424065
[R_mid_hand03]
1 106.028137 -11.221827 -5.996406 -167.901306 10.259192 -37.009720 106.788818
2 106.028137 -11.221827 -5.996406 -167.901306 10.259192 -37.009720 106.788818
[spine02]
1 129.756927 0.001550 0.000119 0.001147 -1.797837 -7.854275 129.756927
2 129.756927 0.001550 0.000119 0.001147 -1.797837 -7.854275 129.756927
[spine03]
1 79.115631 0.000000 -0.000119 1.459971 -2.848092 23.765963 79.115631
2 79.115631 0.000000 -0.000119 1.459971 -2.848092 23.765963 79.115631
[pelvis]
1 169.435242 0.051022 0.000000 -0.000005 0.000003 -4.322055 169.435257
2 169.435242 0.051022 0.000000 -0.000005 0.000003 -4.322055 169.435257
[null_rope03_connect]
1 -1.257226 -2.466202 137.391083 34.782074 -82.158577 36.930336 137.418976
2 -1.257226 -2.466202 137.391083 35.324467 -82.264313 36.516891 137.418976
[null_rope04_connect]
1 -1.259640 -2.480268 -137.844437 34.782074 -82.158577 36.930336 137.872513
2 -1.259640 -2.480268 -137.844437 35.324467 -82.264313 36.516891 137.872513
[Rope3_Seg01]
1 0.000000 0.000000 0.000000 -129.883087 -1.512308 -91.045547 0.000000
2 0.000000 0.000000 0.000000 -128.777649 -1.639819 -100.128380 0.000000
[Rope3_Seg02]
1 139.999924 -0.000119 0.000060 -0.459638 -4.952419 -1.582427 139.999924
2 139.999924 -0.000119 0.000060 -0.853539 -5.291399 -2.390067 139.999924
[Rope3_Seg03]
1 139.999924 -0.000119 0.000119 -0.235204 -5.742414 -1.893112 139.999924
2 139.999924 -0.000119 0.000119 -0.614441 -6.350435 -3.005974 139.999924
[Rope3_Seg04]
1 139.999924 0.000119 0.000000 0.159083 -7.861671 -2.795575 139.999924
2 139.999924 0.000119 0.000000 -0.173929 -8.455968 -4.335730 139.999924
[Rope3_Seg05]
1 139.999924 -0.000238 0.000060 1.714142 -11.906239 -4.584302 139.999924
2 139.999924 -0.000238 0.000060 1.306607 -11.879135 -6.647043 139.999924
[Rope3_Seg06]
1 139.999893 -0.000119 -0.000060 0.875894 -2.306832 -0.179220 139.999893
2 139.999893 -0.000119 -0.000060 1.065223 -4.260647 -1.314917 139.999893
[Rope3_Seg07]
1 139.999771 0.000060 -0.000119 -0.030452 9.572474 4.774901 139.999771
2 139.999771 0.000060 -0.000119 0.435612 4.193466 4.141048 139.999771
[Rope3_Seg08]
1 139.999985 -0.000060 0.000000 0.652906 7.244351 3.785190 139.999985
2 139.999985 -0.000060 0.000000 0.550216 2.027982 2.479902 139.999985
[Rope3_Seg09]
1 90.185997 -0.000179 -0.000060 89.793228 -1.359877 -0.847183 90.185997
2 90.185997 -0.000179 -0.000060 89.793228 -1.359877 -0.847183 90.185997
[R_rear_hand01]
1 103.366196 -6.073594 -10.757982 -161.551193 16.666374 -30.088671 104.101845
2 103.366196 -6.073594 -10.757982 -161.551193 16.666374 -30.088671 104.101845
[R_rear_hand02]
1 100.509819 12.039542 -7.992327 -34.280552 19.289745 28.875523 101.543350
2 100.509819 12.039542 -7.992327 -34.280552 19.289745 28.875523 101.543350
[R_rear_hand03]
1 101.539970 5.215704 5.435467 83.366440 -30.933914 7.284830 101.819031
2 101.539970 5.215704 5.435467 83.366440 -30.933914 7.284830 101.819031
[Rope4_Seg01]
1 0.000000 0.000000 0.000000 54.873962 -22.268290 -123.762115 0.000000
2 0.000000 0.000000 0.000000 54.347492 -17.268293 -132.206757 0.000000
[Rope4_Seg02]
1 139.999985 0.000060 0.000119 0.201272 24.632286 6.619987 139.999985
2 139.999985 0.000060 0.000119 1.369926 21.249544 9.800902 139.999985
[Rope4_Seg03]
1 139.999924 0.000000 -0.000238 1.802163 19.854441 6.059053 139.999924
2 139.999924 0.000000 -0.000238 1.535079 18.599138 8.917025 139.999924
[Rope4_Seg04]
1 139.999985 0.000000 0.000119 2.102942 15.196748 5.264150 139.999985
2 139.999985 0.000000 0.000119 0.981459 14.623981 8.012375 139.999985
[Rope4_Seg05]
1 139.999802 -0.000060 -0.000119 1.131619 3.658688 0.364402 139.999802
2 139.999802 -0.000060 -0.000119 0.565996 5.009938 1.808665 139.999802
[Rope4_Seg06]
1 139.999924 0.000000 0.000060 0.987287 -2.366863 -2.442907 139.999924
2 139.999924 0.000000 0.000060 1.265575 0.471445 -1.778720 139.999924
[Rope4_Seg07]
1 139.999802 0.000000 0.000000 1.384335 -9.399185 -6.293739 139.999802
2 139.999802 0.000000 0.000000 2.269054 -3.221227 -5.581983 139.999802
[Rope4_Seg08]
1 139.999924 0.000000 0.000119 -0.694622 -6.003179 -4.583915 139.999924
2 139.999924 0.000000 0.000119 -0.101270 -1.124799 -3.628265 139.999924
[Rope4_Seg09]
1 90.185791 0.000060 0.000060 -135.617828 2.228885 0.850567 90.185791
2 90.185791 0.000060 0.000060 -135.617828 2.228885 0.850567 90.185791
[L_rear_hand01]
1 101.696655 -8.392275 -7.654577 -34.454281 -18.946800 151.655121 102.329041
2 101.696655 -8.392275 -7.654577 -34.454281 -18.946800 151.655121 102.329041
[L_rear_hand02]
1 102.726799 -1.568258 5.773216 83.407906 30.330435 172.796509 102.900848
2 102.726799 -1.568258 5.773216 83.407906 30.330435 172.796509 102.900848
[L_rear_hand03]
1 104.552910 9.721220 -10.420293 -161.379868 -16.473232 -150.512238 105.519653
2 104.552910 9.721220 -10.420293 -161.379868 -16.473232 -150.512238 105.519653
